<?xml version="1.0" encoding="UTF-8"?> <svg xmlns="http://www.w3.org/2000/svg" id="Layer_1" width="820" height="460" viewBox="0 0 820 460"><defs><style>.cls-1{fill:#fff;}.cls-2{fill:#233c7b;}</style></defs><circle class="cls-1" cx="409.21" cy="230.69" r="149.9"></circle><path class="cls-2" d="M410,338.58c-59.87,0-108.58-48.71-108.58-108.58s48.71-108.58,108.58-108.58,108.58,48.71,108.58,108.58-48.71,108.58-108.58,108.58m0-261.57c-84.36,0-153,68.64-153,153s68.64,153,153,153,153-68.64,153-153-68.64-153-153-153"></path><path class="cls-1" d="M349.47,351.49c-2.2,3.43-5.42,5.9-9.51,3.6-5.33-2.99-3.23-8.41-.58-13.13,2.65-4.73,6.33-9.26,11.51-6.36,3.83,2.15,4.23,5.2,2.27,8.94l-2.41-1.35c1.14-2.16,1.47-4.35-.92-5.69-3.21-1.8-5.6,1.49-8.03,5.82-2.43,4.33-3.98,8.08-.78,9.88,2.81,1.58,4.68-.83,6.04-3.07l2.42,1.36Z"></path><polygon class="cls-1" points="361.6 341.45 371.98 345.41 371.15 347.61 363.23 344.59 360.83 350.9 368.29 353.74 367.46 355.94 360 353.09 357.25 360.3 365.5 363.44 364.66 365.64 353.93 361.55 361.6 341.45"></polygon><path class="cls-1" d="M378.25,357.27l2.56,.56c1.53,.34,4.32,.96,5.23-3.1,.45-2.06-.64-3.66-3.05-4.19l-3.09-.69-1.64,7.42Zm-.48-10.11l6.79,1.51c3.29,.73,4.95,3.13,4.21,6.46-.51,2.29-1.83,4.53-4.41,4.58v.06c1.77,.61,2.46,2.34,2.18,4.16l-.62,3.63c-.4,2.35-.15,3.02,.39,3.54l-3.12-.69c-.35-.54-.21-2.14-.04-3.18l.55-3.3c.43-2.93-1.12-3.46-2.44-3.75l-3.5-.78-2.07,9.36-2.59-.58,4.65-21Z"></path><polygon class="cls-1" points="400.6 372.56 397.95 372.36 399.41 353.26 394.04 352.86 394.22 350.51 407.64 351.54 407.46 353.88 402.05 353.47 400.6 372.56"></polygon><rect class="cls-1" x="413.25" y="351.32" width="2.65" height="21.5" transform="translate(-10.24 12.08) rotate(-1.65)"></rect><polygon class="cls-1" points="422.34 350.9 433.36 349.4 433.68 351.73 425.29 352.87 426.2 359.56 434.11 358.48 434.43 360.81 426.52 361.89 427.88 371.86 425.25 372.22 422.34 350.9"></polygon><rect class="cls-1" x="441.31" y="347.48" width="2.65" height="21.51" transform="translate(-72.78 116.14) rotate(-13.82)"></rect><polygon class="cls-1" points="447.87 345.71 458.31 341.89 459.12 344.1 451.17 347 453.48 353.34 460.98 350.6 461.79 352.81 454.29 355.54 456.94 362.79 465.22 359.76 466.03 361.97 455.26 365.91 447.87 345.71"></polygon><path class="cls-1" d="M475.68,354.99l2.43-1.33c4.02-2.2,2.2-6.57,.35-9.95-2-3.64-4.38-7.42-8.61-5.1l-2.43,1.33,8.26,15.05Zm-11.63-15.68l5.05-2.77c5.86-3.22,8.92,.61,11.77,5.81,2.61,4.75,3.98,10.08-1.19,12.92l-5.28,2.9-10.35-18.86Z"></path><path class="cls-2" d="M351.13,191.94c2.64,0,4.67-.63,6.09-1.88,1.42-1.26,2.13-3.37,2.13-6.34,0-5.08-2.54-7.61-7.61-7.61h-5.18v15.84h4.57Zm4.72-24c4.57,0,8.12,1.17,10.66,3.5,2.54,2.33,3.81,5.88,3.81,10.65,0,3.69-.74,6.7-2.21,9.04-1.47,2.33-3.76,3.83-6.85,4.5v.15c2.74,.41,4.74,1.31,6.01,2.69,1.27,1.38,2.06,3.61,2.36,6.69,.1,1.03,.18,2.14,.23,3.35,.05,1.21,.1,2.55,.15,4.04,.1,2.92,.25,5.15,.45,6.69,.3,1.54,.96,2.59,1.98,3.15v.46h-11.87c-.56-.77-.91-1.65-1.07-2.65-.15-1-.25-2.04-.3-3.11l-.3-10.54c-.1-2.16-.64-3.85-1.6-5.08-.96-1.23-2.59-1.84-4.87-1.84h-5.86v23.22h-10.96v-54.91h20.25Z"></path><path class="cls-2" d="M375.48,195.5c.33-.78,.78-1.46,1.35-2.03,.57-.58,1.24-1.03,2.01-1.37,.77-.34,1.6-.5,2.48-.5s1.71,.17,2.48,.5c.77,.34,1.44,.79,2.01,1.37,.57,.58,1.02,1.25,1.36,2.03,.33,.78,.5,1.61,.5,2.5s-.17,1.72-.5,2.51c-.33,.78-.79,1.46-1.36,2.03-.57,.58-1.24,1.03-2.01,1.37-.77,.34-1.6,.5-2.48,.5s-1.71-.17-2.48-.5c-.77-.34-1.44-.79-2.01-1.37-.57-.58-1.02-1.26-1.35-2.03-.33-.78-.5-1.61-.5-2.51s.16-1.72,.5-2.5"></path><path class="cls-2" d="M432.19,195.5c.33-.78,.78-1.46,1.35-2.03,.57-.58,1.24-1.03,2.01-1.37,.77-.34,1.6-.5,2.48-.5s1.71,.17,2.48,.5c.77,.34,1.44,.79,2.01,1.37s1.02,1.25,1.36,2.03c.33,.78,.5,1.61,.5,2.5s-.17,1.72-.5,2.51c-.33,.78-.79,1.46-1.36,2.03-.57,.58-1.24,1.03-2.01,1.37-.77,.34-1.6,.5-2.48,.5s-1.71-.17-2.48-.5c-.77-.34-1.44-.79-2.01-1.37-.57-.58-1.02-1.26-1.35-2.03-.33-.78-.5-1.61-.5-2.51s.16-1.72,.5-2.5"></path><path class="cls-2" d="M457.92,207.32c0,1.28,.1,2.45,.3,3.5,.2,1.05,.58,1.93,1.14,2.65,.56,.72,1.31,1.28,2.24,1.69,.94,.41,2.12,.61,3.54,.61,1.67,0,3.18-.55,4.53-1.65,1.34-1.1,2.01-2.81,2.01-5.11,0-1.23-.16-2.29-.49-3.19-.33-.9-.88-1.71-1.64-2.42-.76-.72-1.76-1.37-3.01-1.96-1.24-.59-2.78-1.19-4.6-1.81-2.44-.82-4.54-1.72-6.32-2.69-1.78-.97-3.26-2.11-4.45-3.42-1.19-1.31-2.07-2.82-2.62-4.54-.56-1.72-.84-3.71-.84-5.96,0-5.43,1.5-9.48,4.49-12.15,2.99-2.67,7.1-4,12.33-4,2.44,0,4.68,.27,6.74,.81,2.06,.54,3.83,1.41,5.33,2.62,1.49,1.21,2.66,2.74,3.5,4.62,.84,1.87,1.26,4.11,1.26,6.73v1.54h-10.51c0-2.62-.45-4.63-1.37-6.04-.91-1.41-2.44-2.11-4.57-2.11-1.22,0-2.23,.18-3.05,.54-.81,.36-1.46,.83-1.94,1.42-.48,.59-.81,1.27-.99,2.04-.18,.77-.27,1.56-.27,2.38,0,1.69,.35,3.12,1.06,4.27,.71,1.16,2.23,2.22,4.57,3.19l8.45,3.69c2.08,.92,3.78,1.88,5.1,2.88,1.32,1,2.37,2.08,3.16,3.23,.79,1.15,1.33,2.42,1.64,3.81,.3,1.38,.45,2.92,.45,4.62,0,5.79-1.66,10.01-4.98,12.65-3.33,2.64-7.96,3.96-13.89,3.96s-10.62-1.36-13.28-4.08c-2.67-2.72-4-6.61-4-11.69v-2.23h10.96v1.61Z"></path><path class="cls-2" d="M309.54,229.84c0,55.49,44.98,100.47,100.45,100.47s100.46-44.98,100.46-100.47h-200.91Z"></path><path class="cls-1" d="M274.78,275.27l-1.75-6.48c-.85-3.14,.46-5.63,3.63-6.49,2.19-.59,4.69-.46,5.88,1.72l.06-.02c-.27-1.79,.89-3.16,2.57-3.74l3.38-1.09c2.19-.71,2.65-1.23,2.85-1.92l.8,2.97c-.31,.53-1.74,1.13-2.71,1.45l-3.07,1.01c-2.7,.94-2.45,2.5-2.11,3.76l.9,3.34,8.92-2.41,.67,2.47-20.02,5.42Zm8.42-4.93l-.66-2.44c-.39-1.46-1.12-4.12-4.99-3.08-1.96,.53-2.84,2.18-2.22,4.48l.8,2.95,7.07-1.91Z"></path><path class="cls-1" d="M269.61,253.78l-1.22-10.65,2.25-.26,.93,8.11,6.47-.74-.87-7.65,2.25-.26,.87,7.65,7.39-.84-.97-8.46,2.25-.26,1.26,11-20.61,2.36Z"></path><path class="cls-1" d="M273.44,224.75c-2.18-.08-3.72,.64-3.81,3.08-.08,2.15,1.03,3.47,3.24,3.55,5.83,.22,2.72-9.69,10.3-9.41,4.79,.18,6.02,3.75,5.91,6.68-.18,4.85-2.74,6.18-7.15,6.01l.1-2.56c2.32,.09,4.82,.04,4.97-3.71,.08-2.03-1.31-3.65-3.52-3.74-5.86-.22-2.84,9.69-10.45,9.4-1.92-.07-5.69-1.03-5.49-6.29,.15-3.95,2.19-5.67,6-5.59l-.1,2.55Z"></path><path class="cls-1" d="M269.01,212.64l.86-5.22c.29-1.78,1.05-6.33,6.93-5.36,3.81,.63,5.53,3.42,4.95,6.89l-.52,3.12,8.66,1.43-.42,2.52-20.46-3.39Zm10.16-.91l.5-3.01c.3-1.83-.7-3.59-3.42-4.04-2.24-.37-3.87,.45-4.29,2.94l-.47,2.84,7.68,1.27Z"></path><path class="cls-1" d="M287.42,182.38c4.93,1.74,9.85,4.48,7.95,9.88-1.9,5.4-7.45,4.46-12.39,2.72-4.93-1.74-9.85-4.49-7.95-9.88,1.9-5.4,7.45-4.46,12.39-2.72Zm-3.55,10.08c4.52,1.59,8.35,2.45,9.52-.9,1.18-3.34-2.34-5.07-6.86-6.67-4.52-1.59-8.35-2.45-9.53,.9-1.18,3.34,2.34,5.07,6.86,6.67Z"></path><path class="cls-1" d="M281.8,168.96l1.62-2.89,18.46,2.47,.03-.05-15.11-8.45,1.25-2.23,18.11,10.12-1.72,3.07-17.9-2.39-.03,.05,14.66,8.19-1.25,2.23-18.11-10.12Z"></path><path class="cls-1" d="M303.15,145.49c-1.73-1.33-3.41-1.62-4.89,.31-1.31,1.71-1.16,3.43,.59,4.77,4.63,3.55,7.82-6.34,13.84-1.72,3.8,2.92,2.75,6.54,.96,8.87-2.95,3.85-5.8,3.46-9.31,.77l1.56-2.03c1.85,1.41,3.92,2.82,6.2-.16,1.24-1.61,1.04-3.74-.71-5.09-4.66-3.57-7.92,6.27-13.96,1.64-1.52-1.17-4.05-4.13-.85-8.3,2.4-3.14,5.07-3.36,8.12-1.09l-1.56,2.03Z"></path><path class="cls-1" d="M306.54,133.36l1.79-1.83,14.84,14.49-1.79,1.83-14.84-14.49Z"></path><path class="cls-1" d="M314.93,124.88l4.95-3.99c2.1-1.69,4.94-2.34,7.48,.81,1.18,1.47,1.49,3.65,.36,5.27l.04,.04c2.37-1.13,4.48-.32,6.08,1.67,2.64,3.28,1.86,6.11-1.51,8.82l-4.39,3.54-13.01-16.15Zm7.6,5.37l2.29-1.84c.84-.67,2.57-2.41,.57-4.9-1.35-1.67-2.97-1.97-4.91-.41l-2.24,1.8,4.3,5.34Zm6.09,7.56l2.72-2.19c2.1-1.69,1.68-3.7,.42-5.26-1.79-2.22-3.9-1.93-5.65-.53l-2.38,1.91,4.88,6.06Z"></path><path class="cls-1" d="M332.31,111.56l2.2-1.3,9.4,15.91,7.25-4.29,1.15,1.95-9.45,5.59-10.56-17.86Z"></path><path class="cls-1" d="M348.85,102.31l9.82-4.3,.91,2.08-7.48,3.27,2.61,5.96,7.05-3.09,.91,2.08-7.05,3.09,2.98,6.81,7.8-3.41,.91,2.08-10.14,4.44-8.31-19Z"></path><path class="cls-1" d="M381.86,91.3l3.37-.65,9.38,19.32-2.62,.5-2.53-5.31-6.51,1.25-.44,5.88-2.62,.5,1.97-21.5Zm1.21,12.96l5.48-1.05-4.48-9.35h-.06s-.94,10.4-.94,10.4Z"></path><path class="cls-1" d="M399.18,88.76l2.55-.1,.7,18.46,8.42-.32,.09,2.26-10.97,.42-.79-20.73Z"></path><path class="cls-1" d="M418.31,88.57l5.27,.47c1.79,.16,6.4,.57,5.87,6.5-.34,3.85-2.99,5.77-6.5,5.46l-3.15-.28-.78,8.74-2.55-.23,1.83-20.66Zm1.67,10.07l3.04,.27c1.85,.16,3.53-.97,3.77-3.72,.2-2.26-.74-3.83-3.26-4.05l-2.87-.25-.69,7.76Z"></path><path class="cls-1" d="M442.04,91.95l3.33,.81,.5,21.48-2.6-.63-.09-5.88-6.44-1.57-2.84,5.17-2.6-.63,10.73-18.73Zm-4.29,12.29l5.42,1.32-.19-10.36h-.06s-5.17,9.04-5.17,9.04Z"></path><path class="cls-1" d="M465.39,114.15c-1.7,3.54-4.49,6.3-8.68,4.58-5.46-2.23-4.09-7.66-2.11-12.51,1.98-4.84,4.96-9.62,10.26-7.45,3.93,1.6,4.67,4.48,3.23,8.29l-2.47-1.01c.84-2.2,.89-4.34-1.55-5.34-3.28-1.34-5.18,2.09-7,6.52-1.81,4.44-2.86,8.22,.43,9.56,2.88,1.18,4.38-1.35,5.42-3.66l2.47,1.01Z"></path><path class="cls-1" d="M482.99,108.24l2.91,1.82-6.25,20.55-2.27-1.42,1.76-5.61-5.62-3.51-4.32,4.02-2.27-1.42,16.06-14.43Zm-7.92,10.33l4.73,2.95,3.06-9.9-.05-.03-7.75,6.98Z"></path><path class="cls-1" d="M508.6,135.15c1.52-1.56,2.02-3.19,.27-4.89-1.54-1.5-3.27-1.56-4.81,.02-4.08,4.18,5.36,8.52,.06,13.95-3.35,3.43-6.82,1.95-8.92-.1-3.47-3.39-2.74-6.17,.34-9.33l1.83,1.79c-1.62,1.66-3.27,3.55-.58,6.17,1.45,1.42,3.59,1.48,5.13-.1,4.1-4.2-5.28-8.61,.04-14.05,1.34-1.37,4.58-3.53,8.34,.15,2.83,2.76,2.73,5.43,.12,8.2l-1.83-1.79Z"></path><path class="cls-1" d="M508.1,158.22l-1.56-2.03,14.66-11.24-3.16-4.13,1.8-1.38,7.9,10.31-1.8,1.38-3.18-4.15-14.66,11.24Z"></path><path class="cls-1" d="M533.64,159.29l1.67,2.99-15.38,14.99-1.31-2.33,4.25-4.07-3.23-5.78-5.72,1.44-1.3-2.33,21.03-4.9Zm-11.92,5.23l2.72,4.87,7.46-7.2-.03-.05-10.15,2.38Z"></path><path class="cls-1" d="M541.98,175.44l1.1,3.12-14.05,12.22,.02,.05,16.33-5.75,.85,2.41-19.57,6.89-1.17-3.32,13.63-11.85-.02-.06-15.84,5.58-.85-2.41,19.57-6.89Z"></path><path class="cls-1" d="M549.16,197.71l1.04,5.45c1.21,6.34-3.2,8.01-8.82,9.09-5.14,.98-10.43,.67-11.5-4.93l-1.09-5.71,20.37-3.9Zm-17.84,6.02l.5,2.62c.83,4.34,5.38,3.97,9.03,3.27,3.94-.75,8.11-1.82,7.24-6.38l-.5-2.62-16.26,3.12Z"></path><path class="cls-1" d="M552.85,225.28l.04,3.43-20.67,5.84-.03-2.67,5.67-1.55-.08-6.62-5.71-1.47-.03-2.67,20.82,5.72Zm-12.97-1.09l.07,5.58,9.99-2.77v-.06s-10.06-2.75-10.06-2.75Z"></path><path class="cls-1" d="M552.65,242.82l-.93,6.65c-.45,3.22-2.64,5-5.89,4.55-2.24-.31-4.49-1.42-4.74-3.89h-.06c-.45,1.75-2.06,2.55-3.83,2.42l-3.53-.32c-2.29-.2-2.92,.09-3.38,.64l.43-3.05c.49-.37,2.04-.36,3.06-.28l3.22,.27c2.85,.19,3.24-1.34,3.42-2.63l.48-3.42-9.15-1.28,.35-2.53,20.54,2.87Zm-9.68,1.23l-.35,2.5c-.21,1.5-.59,4.23,3.38,4.79,2.01,.28,3.47-.89,3.8-3.25l.42-3.02-7.25-1.01Z"></path><path class="cls-1" d="M549.01,264.87l-1.58,5.32c-1.84,6.18-6.53,5.64-12.01,4-5.01-1.49-9.57-4.21-7.95-9.67l1.66-5.57,19.88,5.91Zm-18.61-2.87l-.76,2.56c-1.26,4.23,2.94,6,6.51,7.06,3.84,1.14,8.04,2.12,9.36-2.34l.76-2.56-15.87-4.72Z"></path><path class="cls-2" d="M409.92,177.47h.15l5.31,24.68h-10.77l5.31-24.68Zm-21.3,45.37h11.53l2.54-11.61h14.61l2.54,11.61h11.53l-14.53-54.9h-13.69l-14.53,54.9Z"></path><path class="cls-1" d="M377.61,303.96s0-.07,0-.1c-.31,.14-.63,.28-.94,.42,.23-.72,.61-1.4,1.11-1.98-.26,.09-.55,.09-.81,.01,.46-.47,.93-.93,1.39-1.4,.02-.05,.04-.1,.06-.15-.21,.02-.43,0-.62-.09,.55-.6,1.05-1.24,1.48-1.93-.35-.02-.68-.14-.96-.34,.59-.35,1.18-.69,1.77-1.04-.2,0-.39,0-.59,0,.43-.45,.98-.79,1.57-.98-.24-.09-.48-.17-.73-.26,.3-.35,.77-.55,1.23-.54-.14,0-.27-.01-.41-.02,.39-.49,.9-.88,1.46-1.14-.21,.08-.41,.15-.62,.23,.24-.58,.73-1.06,1.31-1.3-.29,.02-.58-.01-.86-.1,.61-.34,1.24-.63,1.9-.87-.15,0-.29-.06-.39-.17,.36-.18,.72-.36,1.07-.55-.13-.06-.26-.11-.4-.17,.42-.28,.85-.54,1.3-.78-.29,0-.58,0-.87,0,.52-.41,1.03-.83,1.55-1.25-.03-.1-.06-.2-.09-.28-.14-.03-.28-.05-.42-.08,.08-.13,.18-.25,.28-.36-.05-.15-.08-.24-.08-.24-.6-1.77-1.06-3.38-1.41-4.88,.07-.99,.02-2.17,.05-2.59,.03-.41,.06-.82,.15-1.22,.15-.75-.04-3.47,.26-4.18-1.23,1.38-1.43,5.23-1.44,7.08,0,.11-.04,.4-.06,.76-.2,.52-.48,1.31-.57,1.53-.64-.27-.74-1.95-.77-2.64-.17,.29-.64,1.59-.81,1.89-.3-.6-.07-2.31,.07-2.96-.15,.18-.54,.73-.69,.91-.18-.1-.1-.57-.04-1,.02,.04,.03,.08,.06,.09,0-.17-.01-.33-.02-.5,0,.12-.02,.26-.04,.41-.09-.17-.05-.59,0-.73,.02,.03,.03,.08,.03,.12-.02-.55-.04-1.11-.06-1.66-.29,.16-.58,.32-.87,.49,.65-1.92,1.31-3.84,1.96-5.75-.11,.11-.31,.1-.41,0,.54-.57,1.08-1.14,1.62-1.71-.18,.15-.43,.2-.65,.16,.23-.36,.56-.65,.96-.81-.31,.02-.65-.09-.97-.06,.72-.58,1.46-1.02,2.18-1.6-.17-.05-.34-.1-.5-.15,.47-.36,.93-.72,1.4-1.09-.18-.01-.54,.05-.72,.03,.15-.3,.84-.58,1.13-.75,.21-.12-.22-.16-.32-.32-.05-.07,0-.17,.08-.2,.49-.24,1.13-.58,1.54-.95-.31,0-.4-.09-.71-.08,.54-.53,1.16-.96,1.84-1.3,.02-.03,.04-.05,.05-.08-.17,.04-.38,.02-.53,.02,.32-.28,.65-.47,.95-.59,1.26-1.69,1.71-1.63,7.73-3.24,7.85-2.11,19.48,1.22,22.58,1.53,3.83,.38,10.34,1.15,10.34,1.15,.01-.01,.03-.04,.05-.05,.05-.59,.14-1.18,.31-1.75,.19-.18,.36-.39,.5-.61-.18-.17-.32-.4-.38-.64,.22-.1,.44-.21,.65-.31-.12-.31-.24-.62-.36-.94,.38-.11,.76-.22,1.14-.34-.36-.11-.61-.49-.57-.86,.46-.07,.9-.26,1.3-.5,0-.02,.01-.04,.02-.06-.12,.04-.23,.08-.35,.12,.07-.13-.08-.31-.22-.27,.55-.85,.85-1.85,.86-2.86,0-.28-.02-.58-.17-.83,.29,.13,.66-.01,.81-.29,.14-.28,.03-.66-.25-.82,.46-.32,.94-.67,1.18-1.17,.25-.5,.18-1.21-.31-1.5,.12-.27,.35-.48,.62-.57-.17-.01-.34-.09-.47-.2,.41-.19,.79-.45,1.12-.76-.42-.14-.26-.77,0-1.13,.25-.36,.5-.94,.12-1.17,.23-.1,.45-.2,.68-.29-.13-.16-.25-.32-.37-.48,.45-.09,.73-.66,.52-1.07,.37-.09,.33-.61,.29-.99-.04-.41,.19-.68,.57-.7-.1-.13-.12-.4-.27-.56,.31-.39,.66-.59,1.01-.66,1.26-2.4,3.68-3.15,6.04-3.61,.62-1.96,1.84-3.02,2.67-3.39,.82-.37,1.27,2.17,1.21,3.64,.87,.15,4.65,2.19,5.06,2.43,2.3,1.34,.96,4.4,.96,4.4,2.2,.96,4.38,2.94,4.95,3.8,.57,.86-.58,1.24-.58,1.24,0,0,.67,.96,.58,1.63-.1,.67-1.15,.96-1.15,.96-.86,2.11-4.14,.85-4.14,.85-.12,.27-.26,.51-.42,.72-.16,.64-.72,1.01-.95,1.64,.1-.26,.1-.55,.06-.82-.12,.08-.26,.15-.39,.21-.37,.48-.84,.88-1.38,1.16-.05-.19-.11-.39-.16-.58-.22,.37-.51,.69-.87,.93,.11-.27,.11-.59,.02-.87-.08,.01-.15,.03-.23,.04-.22,.3-.44,.61-.66,.91-.02-.21-.32-.3-.51-.2-.19,.1-.28,.32-.37,.52-.03-.29-.11-.56-.24-.82-.15,.1-.3,.25-.43,.45-.24,.59-.3,1.25-.15,1.87-.23-.02-.43-.21-.46-.43-.01,.84-.02,1.68-.03,2.52-.12-.22-.32-.4-.53-.54,0,.04-.02,.08-.03,.12,.27,.48,.5,.98,.7,1.5-.31-.05-.61-.19-.85-.4-.07,.93,0,1.87,.24,2.78-.24-.09-.46-.22-.65-.39,0,.02,0,.05,0,.07,.17,.48,.34,.96,.51,1.44,.06,.16,.11,.37-.02,.49-.06,.06-.15,.03-.21-.02,.08,1.35,0,2.71-.27,4.04-.2-.31-.4-.62-.6-.92,0,.03,0,.06,0,.09,.19,.68,.18,1.42-.05,2.09,.35,.19,.56,.61,.5,1-.13,.1-.35,.1-.47-.02,.19,1.03,.03,2.12-.45,3.04-.17-.29-.31-.6-.45-.91,0,.02,0,.04-.01,.06l.14,.96c.13,.72,.69,3.05,.6,3.77-.57,0-.77-1.89-.88-2.04-.14,1.11-.28,2.22-.42,3.33-.02,.12-.05,.27-.16,.32-.03,.01-.06,.01-.09,0,.3,.6,.63,1.53,.54,2.11-.3-.02-.87-.7-.9-1-.08,1.16-.3,2.31-.68,3.42-.04-.32-.07-.64-.1-.96-.06,1.09-.11,2.17-.17,3.26-.43-.39-.82-.84-1.16-1.31-.05,.1-.1,.19-.15,.28,0,1.03-.06,2.06-.25,3.07-.11-.27-.1-.6,.02-.86-.35,.43-.71,.86-1.06,1.28,.08-.2-.02-.45-.21-.54-.14,.85-.47,1.67-.94,2.38-.11-.24-.22-.49-.34-.73-.28,.77-.57,1.54-.85,2.31-.35-.51-.7-1.02-1.06-1.53-.85,1.05-1.56,2.2-2.12,3.43l-.21-1.35c-.11,.12-.23,.24-.35,.35-.07-.18-.29,1.09-.49,1.53,.08,.41,.17,.78,.31,1.02-.29-.01-.84,.08-1.12,.06,.72,.4,1.29,1.55,2.01,1.95-.29,.4-.72,.73-1.09,.45,.62,.58,.86,1.11,1.2,1.92-.63,.09-.83,.07-1.37-.25,.65,1.09,.88,1.98,1.53,3.07-.4,.03-.38,.11-.7-.12,.47,.82,.63,1.38,.82,2.32-.35-.12-.5,.04-.79-.2-.07,1.21-.16,1.72,.06,2.88-.41,0-.61,.42-.77,.04,.05,.85-.31,1.41-.42,2.27-.29-.43-.25-.56-.54-.99,.13,.55-.02,1.18-.4,1.62-.11-.05-.22-.11-.32-.19,.01,2.23-.08,4.72-.13,5.95,0,.06,.02,.11,.02,.17,.03,1.11-.27,2.29,.59,2.91,.65,.46,.98,.88,1.01,1.29,.02,.26-1.66,.16-2.55,.11-1.25-.07-1.66,.31-2.33-.65-.45-.64-.27-1.03-.1-1.22-.5,.39-1.51,1.08,.06-4.26-.34-2.63-1.33-5.79-1.33-5.79,0,0-.21-.22-.53-.59-.16,.23-.31,.47-.47,.7-.1-.4-.06-.82,.05-1.21-.03-.03-.05-.07-.08-.1-.33,.4-.7,.76-1.11,1.08-.16-.62-.09-1.3,.2-1.88-.17,.1-.33,.19-.5,.28-.15-.11-.07-.35-.01-.52,.09-.26,.09-.52,.06-.79-.13-.2-.26-.4-.39-.61-.13-.21-.2-.45-.23-.71,.07-.04,.14-.07,.24-.1,.42-.15,.05-.35,.04-.8,0-.32,1-.83,1.01-1.17-.29-.1-.28-.15-.6-.14,.38-.41,.73-.84,1.05-1.3-.27-.05-.55-.11-.82-.16,.33-.32,.54-.76,.58-1.22-.31-.03-.61-.13-.88-.29,.66-.64,1.15-1.46,1.41-2.34-.18,.03-.36,.05-.55,.08,.5-.74,1.01-1.47,1.52-2.21-.83,.61-1.61,1.3-2.32,2.05-.25,.27-.42,.82-.07,.9-.81,1.3-.69,.42-1.27,1.84,.43,.23,.57,.52,.61,.8,0,.02-.02,.04-.03,.05,0,.17,0,.35,.02,.52-.02,.14-.02,.24,0,.32v.05s0-.01,0-.02c.03,.05,.07,.1,.16,.11-.28,.33-.53,.41-.8,.73-.04-.03-.08-.05-.13-.08l-.16,2.48c-.24-.2-.48-.39-.72-.59-.01,.03-.02,.06-.04,.1,.2,1.09,.15,2.23-.19,3.29,.09-.26-.08-.58-.35-.65,.23,1.14,.28,2.32,.16,3.47-.28-.34-.55-.67-.83-1.01-.12,.2-.25,.39-.37,.56,.07,.5,.19,.99,.37,1.46-.29,.11-.62,0-.86-.2l.82,5.66c.03,.1,.05,.22,.05,.34,.03,1.05,.75,2.31,1.51,2.97,.54,.47,.8,.94,.83,1.33,.01,.25-.88,.33-1.72,.29-1.18-.06-2.2,.3-2.83-.61-.24-.33-.29-.55-.26-.69-.54,.33-1.86-.02-.59-4.44l-.33,.09s-1.14-3.98-2.43-6.28c-.07-.13-.14-.28-.21-.44-.12,.5-.23,1-.37,1.49-.61-.48-.88-1.35-.65-2.09-.09,.22-.25,.41-.46,.53-.1-.55-.07-1.11,.08-1.65-.35-.11-.55-.55-.4-.88-.21,.15-.42,.3-.62,.45,.21-1.18,.42-2.36,.63-3.55-.25-.6-.21-1.31,.11-1.87-.12,.11-.3,.15-.45,.1-.05-.47,.1-.95,.39-1.32-.05,.16-.25,.27-.41,.22,.37-.68,.81-1.32,1.32-1.91-.16,.15-.41,.19-.61,.08,.15-.49,.36-.96,.63-1.4-.17-.04-.34-.07-.51-.1,.33-.65,.96-1.13,1.66-1.28-.28,.12-.6,.17-.91,.13,.17-.55,.4-1.08,.69-1.58-.21-.01-.43-.02-.64-.04,.25-.49,.49-.97,.74-1.46,.07-.15,.09-.4-.07-.4,.3-.6,.56-1.22,.78-1.86,.01-.09,.03-.17,.04-.26-.14,.03-.28,.05-.42,.08-.74,.62-1.73,1.05-2.47,1.23-.02-.24,.02-.47,.04-.72-.35,.49-.89,.86-1.48,1-.16-.2-.22-.48-.13-.73-.4,.38-.79,.77-1.18,1.15-.02-.41-.13-.83-.34-1.19-.2,.42-.86,.51-1.16,.16-.33,.41-.77,.75-1.25,.97,.08-.29,0-.62-.22-.83-.26,.09-.45,.31-.65,.5-.2,.19-.46,.37-.73,.33-.27-.04-.48-.41-.28-.6-.21,.24-.66,.19-.8-.1-.58,.48-1.24,.85-1.94,1.11-.03,.11-.05,.23-.08,.34-.07,.34-.96,2.49-.9,2.58-.27-.36-.47-.78-.57-1.22-.23,.95-.47,1.89-.7,2.84-.18-.31-.37-.62-.55-.93-.36,.62-.65,1.29-.84,1.98-.08-.3-.29-.57-.56-.73-.15,.47-.3,.95-.45,1.42,.09-.1-.08-.27-.21-.22-.13,.05-.19,.19-.24,.32-.2,.55-.39,1.1-.59,1.65-.2-.23-.4-.46-.59-.68-.12,.13-.23,.25-.34,.37-.1,.8-.17,1.6-.21,2.4-.42-.23-.77-.58-1.01-.99-.05,.08-.11,.16-.16,.24,0,.79,.07,1.59,.23,2.36-.14-.21-.35-.38-.58-.48,.02,.57,.04,1.15,.05,1.72-.27-.17-.53-.34-.8-.51,.59,.66,1.09,1.41,1.48,2.21-.35-.07-.7-.15-1.05-.23-.06,.75-.12,1.51-.19,2.26-.45-.06-.69-.46-.83-.91-.06,.84-.06,1.4-.06,1.4l.14,6.51c.07,.14,.13,.29,.16,.45,.18,1.16,.24,1.85,1.25,2.57,.5,.36,1.12,1.18,.79,1.47-.23,.21-1.94,.15-2.94,.14-1.37-.01-.85,.09-1.72-.5-1.04-.7-.97-1.73-.97-1.73,0,0-1.96,1.27-.47-3.6-.21-2.17-.97-5.25-3.32-8.56-.27-.71-.4-1.49-.45-2.3,.32-.84,.47-1.79,.41-2.61-.17,.15-.34,.29-.51,.44-.12-.63,.05-1.31,.45-1.81-.29,.06-.56,.17-.81,.33,.09-.91,.62-1.76,1.4-2.24-.52,.12-.91-.54-.86-1.08,.05-.53,.35-1.03,.37-1.56-.05,.12-.24,.08-.29-.04-.05-.12,0-.25,.05-.37,.22-.53,.44-1.06,.66-1.59-1.26,1.53-2.23,3.3-2.82,5.19,.39-.05,.78-.11,1.16-.16-.35,.59-.62,1.23-.78,1.9-.04,.15-.06,.31,.02,.44,.08,.13,.33,.13,.35-.02-.32,.62-.43,1.35-.3,2.03,.26-.07,.52-.14,.78-.21-.23,.06-.15,.98-.04,1.7l-.82,1.28-.8,10.11c.09,.15,.16,.31,.19,.5,.16,1.06,.53,1.84,1.34,2.66,.48,.48,1.1,1.08,.82,1.38-.38,.41-1.44,.14-2.36,.2-1.29,.1-1.04,.12-1.84-.72-.81-.83-1.01-1.65-1.01-1.65,0,0-1.84,1.17-.43-3.31l-.06-.02-.07-7.45s-.28,1.04-.6,.06c-.07,.15-.14,.3-.21,.45-.44-.74-.47-1.67-.15-2.46,0-.08-.02-.17-.03-.25-.18,.16-.36,.32-.54,.49,.04-.81,.17-1.61,.38-2.4,0,0,0-.02,0-.02-.19,.11-.39,.23-.58,.34,.13-.46,.33-.89,.59-1.28"></path></svg> 